<svg width="48" height="48" viewBox="0 0 48 48" fill="none" xmlns="http://www.w3.org/2000/svg">
<g clip-path="url(#clip0_305_7)">
<path d="M13.5271 22.0248C13.5271 22.6154 13.5909 23.0944 13.7027 23.4456C13.8304 23.7968 13.9901 24.1799 14.2136 24.595C14.2934 24.7227 14.3253 24.8504 14.3253 24.9622C14.3253 25.1218 14.2295 25.2814 14.0219 25.4411L13.0162 26.1116C12.8726 26.2074 12.7289 26.2553 12.6011 26.2553C12.4415 26.2553 12.2819 26.1754 12.1222 26.0318C11.8987 25.7923 11.7071 25.5369 11.5475 25.2814C11.3879 25.0101 11.2282 24.7068 11.0526 24.3396C9.80738 25.8083 8.24288 26.5426 6.35908 26.5426C5.01808 26.5426 3.94848 26.1595 3.16623 25.3932C2.38398 24.6269 1.98486 23.6052 1.98486 22.3281C1.98486 20.9711 2.4638 19.8696 3.43762 19.0394C4.41144 18.2093 5.70455 17.7942 7.34887 17.7942C7.89165 17.7942 8.4504 17.8421 9.0411 17.9219C9.63173 18.0017 10.2384 18.1294 10.877 18.2731V17.1077C10.877 15.8944 10.6216 15.0484 10.1267 14.5534C9.61583 14.0586 8.7537 13.8191 7.52445 13.8191C6.96573 13.8191 6.39102 13.8829 5.80033 14.0266C5.20965 14.1703 4.63494 14.3459 4.07619 14.5694C3.82076 14.6812 3.62919 14.7451 3.51744 14.7769C3.40569 14.8089 3.32587 14.8249 3.26201 14.8249C3.03851 14.8249 2.92676 14.6652 2.92676 14.3299V13.5477C2.92676 13.2923 2.95869 13.1007 3.03851 12.9889C3.11833 12.8772 3.26201 12.7654 3.48551 12.6537C4.04426 12.3664 4.71476 12.1269 5.49701 11.9353C6.27926 11.7278 7.1094 11.632 7.98743 11.632C9.88718 11.632 11.2761 12.0631 12.1701 12.9251C13.0481 13.7872 13.4951 15.0962 13.4951 16.8523V22.0248H13.5271ZM7.04555 24.4513C7.57238 24.4513 8.11515 24.3556 8.68988 24.1639C9.2646 23.9724 9.77543 23.6212 10.2065 23.1422C10.4619 22.8389 10.6535 22.5037 10.7492 22.1206C10.8451 21.7374 10.9089 21.2744 10.9089 20.7316V20.0611C10.4459 19.9494 9.95108 19.8536 9.44018 19.7897C8.92935 19.7259 8.43443 19.6939 7.93958 19.6939C6.86994 19.6939 6.08769 19.9015 5.56087 20.3326C5.03405 20.7636 4.77862 21.3702 4.77862 22.1684C4.77862 22.9188 4.97019 23.4775 5.3693 23.8606C5.75244 24.2598 6.31119 24.4513 7.04555 24.4513ZM19.8649 26.1754C19.5776 26.1754 19.3859 26.1276 19.2582 26.0158C19.1306 25.9201 19.0188 25.6966 18.923 25.3932L15.1714 13.0528C15.0756 12.7336 15.0277 12.526 15.0277 12.4142C15.0277 12.1588 15.1554 12.0151 15.4109 12.0151H16.9754C17.2787 12.0151 17.4862 12.0631 17.5979 12.1748C17.7257 12.2706 17.8214 12.4941 17.9172 12.7974L20.5992 23.3658L23.0897 12.7974C23.1695 12.4781 23.2653 12.2706 23.393 12.1748C23.5207 12.079 23.7442 12.0151 24.0316 12.0151H25.3087C25.6121 12.0151 25.8196 12.0631 25.9473 12.1748C26.075 12.2706 26.1867 12.4941 26.2506 12.7974L28.7729 23.4934L31.5348 12.7974C31.6306 12.4781 31.7423 12.2706 31.8541 12.1748C31.9818 12.079 32.1893 12.0151 32.4767 12.0151H33.9614C34.2168 12.0151 34.3604 12.1429 34.3604 12.4142C34.3604 12.4941 34.3445 12.5739 34.3286 12.6697C34.3126 12.7654 34.2806 12.8932 34.2168 13.0688L30.3694 25.4092C30.2736 25.7284 30.1619 25.936 30.0341 26.0318C29.9064 26.1276 29.6989 26.1914 29.4275 26.1914H28.0546C27.7512 26.1914 27.5437 26.1436 27.416 26.0318C27.2883 25.9201 27.1766 25.7125 27.1127 25.3932L24.6382 15.0962L22.1797 25.3773C22.0999 25.6966 22.0041 25.9041 21.8764 26.0158C21.7487 26.1276 21.5252 26.1754 21.2378 26.1754H19.8649ZM40.379 26.6065C39.5489 26.6065 38.7187 26.5107 37.9205 26.3191C37.1223 26.1276 36.4997 25.9201 36.0846 25.6806C35.8292 25.5369 35.6536 25.3773 35.5897 25.2336C35.5259 25.0899 35.4939 24.9302 35.4939 24.7866V23.9724C35.4939 23.6371 35.6216 23.4775 35.8611 23.4775C35.9569 23.4775 36.0527 23.4934 36.1484 23.5254C36.2443 23.5573 36.3879 23.6212 36.5476 23.6851C37.0904 23.9245 37.6811 24.1161 38.3036 24.2438C38.9422 24.3715 39.5648 24.4354 40.2034 24.4354C41.2091 24.4354 41.9914 24.2597 42.5342 23.9086C43.0769 23.5573 43.3643 23.0464 43.3643 22.3919C43.3643 21.9449 43.2206 21.5777 42.9333 21.2744C42.6459 20.9711 42.1031 20.6997 41.3209 20.4443L39.0061 19.7259C37.8407 19.3587 36.9786 18.8159 36.4518 18.0976C35.9249 17.3951 35.6536 16.6129 35.6536 15.7827C35.6536 15.1122 35.7973 14.5216 36.0846 14.0107C36.3719 13.4998 36.7551 13.0528 37.2341 12.7016C37.7129 12.3344 38.2558 12.0631 38.8943 11.8714C39.5329 11.6799 40.2034 11.6001 40.9058 11.6001C41.2571 11.6001 41.6242 11.6161 41.9754 11.6639C42.3426 11.7118 42.6779 11.7757 43.0131 11.8396C43.3324 11.9194 43.6357 11.9992 43.9231 12.0949C44.2104 12.1907 44.4339 12.2866 44.5936 12.3823C44.8171 12.5101 44.9767 12.6377 45.0725 12.7814C45.1683 12.9091 45.2162 13.0847 45.2162 13.3082V14.0586C45.2162 14.3938 45.0885 14.5694 44.849 14.5694C44.7213 14.5694 44.5138 14.5056 44.2424 14.3779C43.3324 13.9628 42.3107 13.7552 41.1772 13.7552C40.2673 13.7552 39.5489 13.8989 39.0539 14.2022C38.5591 14.5056 38.3036 14.9686 38.3036 15.6231C38.3036 16.0701 38.4633 16.4532 38.7826 16.7566C39.1019 17.0599 39.6926 17.3632 40.5386 17.6346L42.8056 18.3529C43.955 18.7201 44.7851 19.231 45.2801 19.8856C45.7749 20.5401 46.0144 21.2904 46.0144 22.1206C46.0144 22.807 45.8707 23.4296 45.5993 23.9724C45.3119 24.5152 44.9288 24.9941 44.4339 25.3773C43.9391 25.7764 43.3484 26.0637 42.6619 26.2712C41.9435 26.4948 41.1932 26.6065 40.379 26.6065Z" fill="#252F3E"/>
<path fill-rule="evenodd" clip-rule="evenodd" d="M43.3961 34.3652C38.1438 38.2445 30.5128 40.3039 23.9516 40.3039C14.7561 40.3039 6.47065 36.9035 0.212647 31.2521C-0.282246 30.8051 0.164754 30.1985 0.75543 30.5497C7.5243 34.477 15.8736 36.8556 24.5103 36.8556C30.3373 36.8556 36.739 35.6423 42.6298 33.1519C43.5078 32.7528 44.2582 33.7266 43.3961 34.3652Z" fill="#FF9900"/>
<path fill-rule="evenodd" clip-rule="evenodd" d="M45.5834 31.8748C44.9129 31.0127 41.1452 31.4597 39.4371 31.6673C38.9262 31.7311 38.8464 31.2841 39.3094 30.9488C42.3106 28.8416 47.2436 29.4482 47.8184 30.1506C48.393 30.869 47.6587 35.802 44.8489 38.1647C44.4179 38.5319 44.0029 38.3403 44.1944 37.8614C44.833 36.2809 46.2539 32.7209 45.5834 31.8748Z" fill="#FF9900"/>
</g>
<defs>
<clipPath id="clip0_305_7">
<rect width="48" height="48" fill="white"/>
</clipPath>
</defs>
</svg>
