<svg width="48" height="48" viewBox="0 0 48 48" fill="none" xmlns="http://www.w3.org/2000/svg">
<rect width="48" height="48" fill="white"/>
<path fill-rule="evenodd" clip-rule="evenodd" d="M39.4608 34.0816L35.4358 31.4475L32.0781 37.0122L28.1729 35.8793L24.7344 41.0862L24.9106 42.7252L43.6063 39.3076L42.5203 27.7182L39.4608 34.0816ZM22.0257 29.0849L25.0253 28.6756C25.5106 28.8919 25.8484 28.9744 26.4305 29.1213C27.3367 29.3556 28.3859 29.5803 29.9396 28.8034C30.3012 28.6257 31.0544 27.9425 31.3589 27.5529L43.6487 25.3408L44.9023 40.3951L23.8478 44.1597L22.0257 29.0849ZM44.8549 23.6604L43.6418 23.8896L41.3111 0L1.6001 4.56851L6.49236 43.9573L11.1406 43.288C10.7694 42.7623 10.1914 42.126 9.20434 41.3116C7.83537 40.1832 8.31956 38.2666 9.12693 37.0564C10.1953 35.0115 15.7001 32.4128 15.3882 29.1443C15.2763 27.9558 15.0859 26.4087 13.974 25.3488C13.9322 25.7888 14.0074 26.2125 14.0074 26.2125C14.0074 26.2125 13.5508 25.6346 13.3232 24.8465C13.0972 24.5444 12.9197 24.4479 12.6796 24.0444C12.5084 24.5112 12.531 25.0527 12.531 25.0527C12.531 25.0527 12.1575 24.1771 12.0971 23.4384C11.8757 23.7691 11.8197 24.3975 11.8197 24.3975C11.8197 24.3975 11.3343 23.0173 11.4451 22.2741C11.2236 21.6273 10.5671 20.3436 10.753 17.426C11.9649 18.2684 14.6328 18.0682 15.6724 16.548C16.0176 16.0447 16.2537 14.6702 15.5 11.9622C15.0159 10.2256 13.817 7.63978 13.3497 6.65881L13.2937 6.69861C13.5401 7.48899 14.048 9.14598 14.2429 9.94926C14.8328 12.386 14.9909 13.2341 14.7141 14.3574C14.4786 15.3339 13.9136 15.9729 12.4812 16.687C11.049 17.4034 9.14841 15.6602 9.02806 15.5637C7.63648 14.4639 6.56016 12.6696 6.43982 11.798C6.31497 10.8439 6.99409 10.271 7.33647 9.49072C6.84662 9.62974 6.30029 9.87638 6.30029 9.87638C6.30029 9.87638 6.95227 9.20708 7.75626 8.62802C8.08904 8.40941 8.28452 8.27039 8.63539 7.98115C8.12746 7.97275 7.71501 7.98732 7.71501 7.98732C7.71501 7.98732 8.56194 7.53327 9.43994 7.20255C8.79756 7.17453 8.18283 7.19806 8.18283 7.19806C8.18283 7.19806 10.0727 6.35947 11.5655 5.74399C12.592 5.32637 13.5949 5.4497 14.1582 6.25801C14.8977 7.3169 15.6747 7.89202 17.321 8.24854C18.3318 7.80402 18.6391 7.57531 19.9092 7.23226C21.0274 6.01249 21.9054 5.85442 21.9054 5.85442C21.9054 5.85442 21.4697 6.25074 21.3534 6.87351C21.9873 6.37798 22.6823 5.96428 22.6823 5.96428C22.6823 5.96428 22.4134 6.29389 22.1625 6.81745L22.2206 6.9032C22.9603 6.46318 23.8298 6.1162 23.8298 6.1162C23.8298 6.1162 23.5812 6.42787 23.2897 6.83146C23.8472 6.82697 24.9784 6.85501 25.4174 6.90433C28.009 6.96095 28.5468 4.15818 29.5412 3.80672C30.7865 3.36555 31.3431 3.09873 33.4652 5.16663C35.2862 6.94189 36.7087 10.1196 36.0025 10.8316C35.4104 11.4224 34.242 10.6012 32.9471 8.99968C32.2629 8.15157 31.7454 7.14929 31.5029 5.87516C31.2985 4.80003 30.5023 4.17612 30.5023 4.17612C30.5023 4.17612 30.9644 5.19522 30.9644 6.09546C30.9644 6.58707 31.0266 8.4251 31.8209 9.45653C31.7425 9.60731 31.7057 10.2026 31.6188 10.3164C30.6944 9.20821 28.7096 8.41503 28.3859 8.18127C29.4815 9.072 31.9995 11.118 32.9668 13.0788C33.8814 14.9331 33.3426 16.6327 33.8052 17.0727C33.9369 17.1988 35.7725 19.4681 36.1257 20.6082C36.7416 22.5953 36.1624 24.6834 35.3562 25.9788L33.1047 26.327C32.7753 26.2361 32.5532 26.1908 32.2578 26.0208C32.4205 25.7349 32.7442 25.022 32.7475 24.8751L32.6204 24.6537C31.9198 25.6386 30.7458 26.5948 29.7706 27.1441C28.4944 27.8617 27.0232 27.7512 26.0654 27.4571C23.3472 26.6252 20.7771 24.8028 20.1572 24.324C20.1572 24.324 20.1381 24.7063 20.255 24.7921C20.9405 25.5589 22.5105 26.9463 24.028 27.9132L20.7929 28.2664L22.3224 40.0818C21.6444 40.1781 21.5387 40.2252 20.7962 40.33C20.142 38.0368 18.8906 36.5395 17.5227 35.6674C16.3164 34.8982 14.6526 34.7252 13.0598 35.0379L12.9576 35.1556C14.065 35.0412 15.3723 35.2005 16.7153 36.0441C18.0334 36.8709 19.0957 39.0066 19.4866 40.2926C19.9872 41.9361 20.3336 43.6939 18.9861 45.5573C18.0273 46.8819 15.2283 47.614 12.9672 46.0303C13.5712 46.994 14.3876 47.7821 15.4864 47.9306C17.1182 48.1504 18.6668 47.8696 19.7329 46.7837C20.6432 45.8555 21.1258 43.9143 20.9986 41.8699L22.4388 41.6625L22.9585 45.3318L46.8001 42.4838L44.8549 23.6604ZM30.3497 13.6954C30.2831 13.8462 30.1786 13.9449 30.3356 14.4353L30.3452 14.4634L30.3701 14.5267L30.4356 14.6736C30.7186 15.2476 31.0295 15.7892 31.5487 16.0655C31.6831 16.043 31.8221 16.0278 31.9662 16.0206C32.4537 15.9993 32.7618 16.0761 32.9571 16.1803C32.9748 16.0839 32.9787 15.9426 32.968 15.7347C32.93 15.0077 33.113 13.7711 31.7046 13.1203C31.173 12.8753 30.4272 12.951 30.1786 13.2565C30.2238 13.2621 30.2644 13.2716 30.2961 13.2823C30.6718 13.4129 30.4171 13.5413 30.3497 13.6954ZM34.2974 20.4792C34.1127 20.3782 33.2492 20.4181 32.6426 20.4898C31.4864 20.625 30.2385 21.023 29.965 21.2349C29.4678 21.616 29.6938 22.2809 30.061 22.5539C31.091 23.3174 31.994 23.8291 32.9471 23.7046C33.5324 23.6284 34.0483 22.7091 34.4138 21.8749C34.664 21.3004 34.6641 20.6805 34.2974 20.4792ZM24.0631 14.5957C24.389 14.2885 22.4392 13.8849 20.9262 14.9085C19.8104 15.6634 19.7747 17.2824 20.8432 18.1999C20.9499 18.2908 21.0381 18.3554 21.1207 18.408C21.4326 18.2622 21.7879 18.1147 22.1969 17.983C22.8879 17.7606 23.4624 17.6457 23.9348 17.5845C24.1608 17.334 24.4236 16.8928 24.358 16.0939C24.2688 15.0105 23.441 15.1826 24.0631 14.5957Z" fill="#632CA6"/>
</svg>
